HIERARCHY
ROOT joint_0
{
	OFFSET 0.000000 0.000000 0.000000
	CHANNELS 6 Xposition Yposition Zposition Zrotation Yrotation Xrotation 
	JOINT joint_1
	{
		OFFSET 4.520508 -1.939880 86.268921
		CHANNELS 3 Zrotation Yrotation Xrotation
		JOINT joint_2
		{
			OFFSET -4.459717 -0.438538 78.934082
			CHANNELS 3 Zrotation Yrotation Xrotation
			JOINT joint_3
			{
				OFFSET -5.197754 -0.781128 78.796997
				CHANNELS 3 Zrotation Yrotation Xrotation
				JOINT joint_4
				{
					OFFSET 2.952026 -3.710571 109.812988
					CHANNELS 3 Zrotation Yrotation Xrotation
					JOINT joint_5
					{
						OFFSET 24.716797 -5.488037 87.903931
						CHANNELS 3 Zrotation Yrotation Xrotation
						End Site
						{
							OFFSET 0.000000 0.000000 0.000000
						}
					}
				}
				JOINT joint_6
				{
					OFFSET -3.154419 -25.484680 60.934937
					CHANNELS 3 Zrotation Yrotation Xrotation
					JOINT joint_7
					{
						OFFSET -28.997192 -144.472229 -32.671997
						CHANNELS 3 Zrotation Yrotation Xrotation
						JOINT joint_8
						{
							OFFSET 19.867676 -18.614380 -249.897949
							CHANNELS 3 Zrotation Yrotation Xrotation
							JOINT joint_9
							{
								OFFSET 5.281982 -13.816650 -264.993042
								CHANNELS 3 Zrotation Yrotation Xrotation
								End Site
								{
									OFFSET 0.000000 0.000000 0.000000
								}
							}
						}
					}
				}
				JOINT joint_10
				{
					OFFSET 6.494995 21.336792 62.257935
					CHANNELS 3 Zrotation Yrotation Xrotation
					JOINT joint_11
					{
						OFFSET 31.106567 145.200745 -27.007935
						CHANNELS 3 Zrotation Yrotation Xrotation
						JOINT joint_12
						{
							OFFSET 29.119141 24.684326 -248.460083
							CHANNELS 3 Zrotation Yrotation Xrotation
							JOINT joint_13
							{
								OFFSET 21.220093 31.248413 -262.703979
								CHANNELS 3 Zrotation Yrotation Xrotation
								End Site
								{
									OFFSET 0.000000 0.000000 0.000000
								}
							}
						}
					}
				}
			}
		}
	}
	JOINT joint_14
	{
		OFFSET -15.458496 -88.861694 -109.593018
		CHANNELS 3 Zrotation Yrotation Xrotation
		JOINT joint_15
		{
			OFFSET -6.193359 6.837952 -506.710999
			CHANNELS 3 Zrotation Yrotation Xrotation
			JOINT joint_16
			{
				OFFSET -35.096680 13.289795 -435.677025
				CHANNELS 3 Zrotation Yrotation Xrotation
				JOINT joint_17
				{
					OFFSET 158.491211 -33.916565 -71.771002
					CHANNELS 3 Zrotation Yrotation Xrotation
					End Site
					{
						OFFSET 0.000000 0.000000 0.000000
					}
				}
			}
		}
	}
	JOINT joint_18
	{
		OFFSET 23.116943 86.574158 -110.082031
		CHANNELS 3 Zrotation Yrotation Xrotation
		JOINT joint_19
		{
			OFFSET -6.125854 -0.283569 -506.757019
			CHANNELS 3 Zrotation Yrotation Xrotation
			JOINT joint_20
			{
				OFFSET -63.240234 11.589966 -432.537994
				CHANNELS 3 Zrotation Yrotation Xrotation
				JOINT joint_21
				{
					OFFSET 156.074219 -41.487305 -73.077999
					CHANNELS 3 Zrotation Yrotation Xrotation
					End Site
					{
						OFFSET 0.000000 0.000000 0.000000
					}
				}
			}
		}
	}
}
MOTION
Frames: 16
Frame Time: 0.016667
-1107.090210 861.032654 1140.128052 -4.057408 -0.597944 -0.069814 -0.317314 -0.446917 -0.300534 -0.294873 0.093596 0.054775 -0.302174 -0.072600 -0.031128 -0.242175 -0.302873 0.798929 0.000000 0.000000 0.000000 -0.093961 0.845507 -0.852840 0.184605 0.343480 1.333935 -0.086542 1.225015 -1.228999 0.000000 0.000000 0.000000 0.215986 0.601871 0.883109 -0.079693 0.930827 -0.906463 0.264050 0.523980 2.361387 0.000000 0.000000 0.000000 -0.225837 0.655924 -1.002999 -0.244524 0.174900 -0.159781 -0.249066 0.359383 -0.035783 0.000000 0.000000 0.000000 0.334100 0.049420 -0.050974 0.330286 0.301786 0.254800 0.336796 -0.058028 0.142258 0.000000 0.000000 0.000000 
-1107.126587 861.165283 1140.126953 -4.080533 -0.599103 -0.072812 -0.316573 -0.439628 -0.304209 -0.293890 0.092550 0.056065 -0.301293 -0.070997 -0.031778 -0.240417 -0.293552 0.794706 0.000000 0.000000 0.000000 -0.088513 0.846781 -0.861337 0.184514 0.343712 1.336856 -0.086315 1.221618 -1.225198 0.000000 0.000000 0.000000 0.214912 0.605804 0.885592 -0.078692 0.935022 -0.903386 0.262786 0.519905 2.352040 0.000000 0.000000 0.000000 -0.217493 0.643648 -1.009607 -0.235889 0.193229 -0.156716 -0.241106 0.353984 -0.033336 0.000000 0.000000 0.000000 0.342317 0.050731 -0.053265 0.338520 0.301247 0.251173 0.344038 -0.059537 0.145247 0.000000 0.000000 0.000000 
-1107.144897 861.304321 1140.125977 -4.107131 -0.600575 -0.075475 -0.316287 -0.435115 -0.309517 -0.293109 0.092459 0.059960 -0.300943 -0.071249 -0.034420 -0.238785 -0.279472 0.791988 0.000000 0.000000 0.000000 -0.083833 0.848172 -0.870133 0.184866 0.343553 1.340652 -0.086657 1.228887 -1.222919 0.000000 0.000000 0.000000 0.214592 0.612414 0.888367 -0.077469 0.941925 -0.900636 0.262681 0.521560 2.347737 0.000000 0.000000 0.000000 -0.208262 0.633187 -1.017268 -0.226440 0.209910 -0.153193 -0.232273 0.348675 -0.030474 0.000000 0.000000 0.000000 0.351421 0.055123 -0.058445 0.347560 0.297689 0.251798 0.352684 -0.060368 0.149074 0.000000 0.000000 0.000000 
-1107.155029 861.451233 1140.125000 -4.136383 -0.603002 -0.078640 -0.317037 -0.429385 -0.312252 -0.293626 0.091504 0.061948 -0.301714 -0.070656 -0.036533 -0.236593 -0.264322 0.787504 0.000000 0.000000 0.000000 -0.076095 0.848901 -0.879616 0.185459 0.343145 1.344872 -0.087217 1.239913 -1.222202 0.000000 0.000000 0.000000 0.216856 0.620410 0.890244 -0.076069 0.949361 -0.896891 0.263023 0.525481 2.345242 0.000000 0.000000 0.000000 -0.198045 0.624379 -1.025346 -0.216060 0.225587 -0.148954 -0.222447 0.344056 -0.027016 0.000000 0.000000 0.000000 0.361281 0.061487 -0.064882 0.357310 0.293666 0.255135 0.362389 -0.062281 0.153108 0.000000 0.000000 0.000000 
-1107.172852 861.607422 1140.123047 -4.167217 -0.606113 -0.082742 -0.318841 -0.417214 -0.311823 -0.295411 0.088721 0.063882 -0.303640 -0.067747 -0.037602 -0.234972 -0.251640 0.784534 0.000000 0.000000 0.000000 -0.067133 0.848176 -0.890406 0.185763 0.341784 1.346998 -0.087473 1.245251 -1.220547 0.000000 0.000000 0.000000 0.221609 0.626900 0.889751 -0.074834 0.954214 -0.892767 0.263180 0.528843 2.341310 0.000000 0.000000 0.000000 -0.187212 0.616162 -1.033132 -0.205089 0.240272 -0.144300 -0.211979 0.340280 -0.023087 0.000000 0.000000 0.000000 0.371490 0.066512 -0.070852 0.367408 0.293324 0.258720 0.372367 -0.065112 0.157027 0.000000 0.000000 0.000000 
-1107.202515 861.779419 1140.116943 -4.199777 -0.611603 -0.088454 -0.323101 -0.393233 -0.300939 -0.300654 0.083811 0.059484 -0.308269 -0.063350 -0.034118 -0.232958 -0.243044 0.779265 0.000000 0.000000 0.000000 -0.050939 0.846433 -0.905775 0.185473 0.340726 1.346814 -0.086983 1.236168 -1.218076 0.000000 0.000000 0.000000 0.233497 0.631616 0.883838 -0.073754 0.954440 -0.887097 0.262911 0.531502 2.333388 0.000000 0.000000 0.000000 -0.175818 0.610732 -1.040478 -0.193636 0.252847 -0.138643 -0.200902 0.336607 -0.018861 0.000000 0.000000 0.000000 0.382469 0.071233 -0.075472 0.378298 0.298123 0.261602 0.382890 -0.070837 0.160430 0.000000 0.000000 0.000000 
-1107.239990 861.960693 1140.110962 -4.233499 -0.617866 -0.095091 -0.328828 -0.363348 -0.285549 -0.307784 0.078161 0.052622 -0.314472 -0.056906 -0.028768 -0.231314 -0.236781 0.774819 0.000000 0.000000 0.000000 -0.031818 0.843004 -0.922040 0.184797 0.339050 1.344166 -0.086176 1.221329 -1.214023 0.000000 0.000000 0.000000 0.248913 0.634899 0.875612 -0.072789 0.951879 -0.880578 0.262422 0.533705 2.323505 0.000000 0.000000 0.000000 -0.163956 0.606082 -1.047518 -0.181747 0.264132 -0.132709 -0.189325 0.334443 -0.014085 0.000000 0.000000 0.000000 0.393778 0.074552 -0.079764 0.389510 0.306868 0.265032 0.393693 -0.077261 0.163780 0.000000 0.000000 0.000000 
-1107.290527 862.141785 1140.105957 -4.266652 -0.624159 -0.101952 -0.332883 -0.329523 -0.274704 -0.312863 0.070627 0.048500 -0.318884 -0.050339 -0.024914 -0.230121 -0.230124 0.772075 0.000000 0.000000 0.000000 -0.018858 0.839418 -0.934160 0.184142 0.336800 1.340794 -0.085565 1.210688 -1.208890 0.000000 0.000000 0.000000 0.258346 0.636202 0.870794 -0.072084 0.949543 -0.875977 0.261845 0.534595 2.314487 0.000000 0.000000 0.000000 -0.152298 0.599188 -1.054530 -0.169987 0.278695 -0.126249 -0.177937 0.331837 -0.009489 0.000000 0.000000 0.000000 0.404862 0.075029 -0.084699 0.400461 0.319879 0.270546 0.404443 -0.085461 0.166632 0.000000 0.000000 0.000000 
-1107.361328 862.322754 1140.104004 -4.297654 -0.628384 -0.107919 -0.332260 -0.295983 -0.273037 -0.312517 0.064522 0.048408 -0.318403 -0.044213 -0.024827 -0.230974 -0.223615 0.776626 0.000000 0.000000 0.000000 -0.023670 0.835189 -0.937021 0.183363 0.332395 1.334397 -0.085341 1.208835 -1.199865 0.000000 0.000000 0.000000 0.251287 0.633191 0.875321 -0.072085 0.949207 -0.877811 0.261173 0.532770 2.308233 0.000000 0.000000 0.000000 -0.141078 0.585898 -1.063154 -0.158523 0.299532 -0.118443 -0.166921 0.328757 -0.005164 0.000000 0.000000 0.000000 0.415260 0.067856 -0.092899 0.410613 0.341181 0.280773 0.414900 -0.096369 0.168627 0.000000 0.000000 0.000000 
-1107.446411 862.502808 1140.104980 -4.327687 -0.632583 -0.113732 -0.329710 -0.259367 -0.276763 -0.309804 0.058915 0.051034 -0.315854 -0.039892 -0.026206 -0.232765 -0.215761 0.784838 0.000000 0.000000 0.000000 -0.036396 0.830932 -0.934552 0.182449 0.327640 1.326208 -0.085289 1.210897 -1.189034 0.000000 0.000000 0.000000 0.236848 0.628358 0.883463 -0.072292 0.949522 -0.881350 0.260355 0.529143 2.302861 0.000000 0.000000 0.000000 -0.130165 0.570367 -1.071855 -0.147292 0.323393 -0.110644 -0.156211 0.326612 -0.000776 0.000000 0.000000 0.000000 0.425229 0.057514 -0.102119 0.420292 0.367045 0.293038 0.425080 -0.107974 0.170306 0.000000 0.000000 0.000000 
-1107.521729 862.667297 1140.104980 -4.360309 -0.635488 -0.119229 -0.325955 -0.228797 -0.283552 -0.305602 0.054119 0.055152 -0.312006 -0.035814 -0.028801 -0.234330 -0.203880 0.793131 0.000000 0.000000 0.000000 -0.049752 0.830037 -0.933378 0.182218 0.324284 1.325026 -0.085510 1.217764 -1.179882 0.000000 0.000000 0.000000 0.221304 0.624772 0.890858 -0.071746 0.950015 -0.879049 0.259814 0.527973 2.297226 0.000000 0.000000 0.000000 -0.118515 0.554676 -1.079187 -0.135305 0.345333 -0.104650 -0.144860 0.324246 0.003854 0.000000 0.000000 0.000000 0.435931 0.049638 -0.108822 0.430791 0.386487 0.301314 0.435629 -0.117793 0.172634 0.000000 0.000000 0.000000 
-1107.581299 862.807251 1140.103027 -4.397449 -0.638130 -0.125418 -0.321975 -0.204475 -0.290608 -0.301260 0.049414 0.057058 -0.307782 -0.031833 -0.030027 -0.234711 -0.187075 0.798269 0.000000 0.000000 0.000000 -0.056344 0.833655 -0.938163 0.183339 0.322722 1.337518 -0.086153 1.231768 -1.174067 0.000000 0.000000 0.000000 0.211211 0.624116 0.894425 -0.069927 0.949479 -0.865729 0.259485 0.529586 2.290182 0.000000 0.000000 0.000000 -0.105465 0.540576 -1.082449 -0.121869 0.364643 -0.102565 -0.132340 0.321838 0.009003 0.000000 0.000000 0.000000 0.448151 0.047950 -0.109580 0.442986 0.395541 0.301934 0.446965 -0.124821 0.176072 0.000000 0.000000 0.000000 
-1107.632080 862.930786 1140.098999 -4.436535 -0.639877 -0.131433 -0.318010 -0.185476 -0.301131 -0.296589 0.045828 0.061127 -0.303469 -0.028818 -0.032382 -0.234297 -0.165189 0.801683 0.000000 0.000000 0.000000 -0.060079 0.840463 -0.944521 0.185104 0.323104 1.357109 -0.087036 1.249904 -1.169997 0.000000 0.000000 0.000000 0.203576 0.625031 0.897548 -0.067417 0.948922 -0.846952 0.259351 0.533272 2.282484 0.000000 0.000000 0.000000 -0.091622 0.526800 -1.083814 -0.107613 0.382023 -0.102991 -0.119166 0.319602 0.014485 0.000000 0.000000 0.000000 0.461036 0.048992 -0.107692 0.455935 0.398457 0.298647 0.458622 -0.130733 0.179957 0.000000 0.000000 0.000000 
-1107.680908 863.061157 1140.094971 -4.473060 -0.641326 -0.136386 -0.315223 -0.166671 -0.310185 -0.293225 0.041332 0.064435 -0.300375 -0.025018 -0.034438 -0.233554 -0.145280 0.803484 0.000000 0.000000 0.000000 -0.063947 0.847559 -0.947444 0.185748 0.326187 1.369239 -0.087498 1.260604 -1.163425 0.000000 0.000000 0.000000 0.197848 0.625632 0.898318 -0.065272 0.947492 -0.829895 0.259662 0.537950 2.278446 0.000000 0.000000 0.000000 -0.078875 0.515904 -1.087344 -0.094623 0.393473 -0.102217 -0.106922 0.318942 0.019884 0.000000 0.000000 0.000000 0.472953 0.050877 -0.107563 0.467892 0.398520 0.295575 0.469433 -0.134586 0.183993 0.000000 0.000000 0.000000 
-1107.726685 863.206177 1140.088989 -4.503838 -0.642829 -0.139817 -0.314729 -0.145888 -0.317296 -0.292326 0.033178 0.067137 -0.299547 -0.017477 -0.035194 -0.231811 -0.126462 0.801453 0.000000 0.000000 0.000000 -0.069769 0.853697 -0.944612 0.184213 0.332555 1.366244 -0.087132 1.257125 -1.150551 0.000000 0.000000 0.000000 0.193470 0.624958 0.895234 -0.063909 0.944501 -0.817208 0.260881 0.545206 2.281049 0.000000 0.000000 0.000000 -0.068207 0.510639 -1.094517 -0.084013 0.394834 -0.099351 -0.096467 0.321318 0.025122 0.000000 0.000000 0.000000 0.483337 0.054053 -0.111343 0.478244 0.395078 0.294781 0.479127 -0.136805 0.187941 0.000000 0.000000 0.000000 
-1107.770508 863.356995 1140.082031 -4.532024 -0.644014 -0.142386 -0.315834 -0.126191 -0.322623 -0.293182 0.026133 0.068666 -0.300408 -0.011330 -0.035764 -0.229649 -0.106954 0.798080 0.000000 0.000000 0.000000 -0.074486 0.860371 -0.938099 0.181556 0.342163 1.355946 -0.086370 1.246662 -1.135382 0.000000 0.000000 0.000000 0.192618 0.624401 0.890586 -0.062922 0.941042 -0.806728 0.262560 0.553629 2.287219 0.000000 0.000000 0.000000 -0.058438 0.508114 -1.103396 -0.074458 0.390445 -0.095731 -0.086777 0.325168 0.030330 0.000000 0.000000 0.000000 0.493005 0.058231 -0.116512 0.487864 0.388546 0.294089 0.488215 -0.137560 0.191994 0.000000 0.000000 0.000000 
